<svg xmlns="http://www.w3.org/2000/svg" xmlns:xlink="http://www.w3.org/1999/xlink" width="273" zoomAndPan="magnify" viewBox="0 0 204.75 56.999997" height="76" preserveAspectRatio="xMidYMid meet" version="1.0"><defs><g/><clipPath id="fa20661420"><path d="M 13 24 L 64.421875 24 L 64.421875 33 L 13 33 Z M 13 24 " clip-rule="nonzero"/></clipPath><clipPath id="1ef0755fdc"><path d="M 22 4 L 64.421875 4 L 64.421875 13 L 22 13 Z M 22 4 " clip-rule="nonzero"/></clipPath><clipPath id="124c0aa3d5"><path d="M 44 14 L 64.421875 14 L 64.421875 23 L 44 23 Z M 44 14 " clip-rule="nonzero"/></clipPath><clipPath id="0b2af6f293"><path d="M 24 34 L 64.421875 34 L 64.421875 43 L 24 43 Z M 24 34 " clip-rule="nonzero"/></clipPath><clipPath id="c49fa52b13"><path d="M 28 43 L 64.421875 43 L 64.421875 53 L 28 53 Z M 28 43 " clip-rule="nonzero"/></clipPath><clipPath id="0fa96e11c9"><path d="M 63 0.0351562 L 66 0.0351562 L 66 56.964844 L 63 56.964844 Z M 63 0.0351562 " clip-rule="nonzero"/></clipPath></defs><g clip-path="url(#fa20661420)"><path fill="#212ea0" d="M 86.660156 24.488281 L 45.195312 24.488281 L 43.425781 27.550781 L 39.324219 27.550781 L 37.554688 24.488281 C 36.027344 24.488281 16.894531 24.488281 15.371094 24.488281 L 13.078125 28.457031 L 15.371094 32.421875 C 16.894531 32.421875 36.027344 32.421875 37.554688 32.421875 L 39.324219 29.363281 L 43.425781 29.363281 L 45.195312 32.421875 L 86.660156 32.421875 C 87.117188 29.800781 87.117188 27.117188 86.660156 24.488281 Z M 86.660156 24.488281 " fill-opacity="1" fill-rule="nonzero"/></g><g clip-path="url(#1ef0755fdc)"><path fill="#212ea0" d="M 29.730469 12.921875 L 31.503906 9.859375 L 35.601562 9.859375 L 37.371094 12.921875 L 81.085938 12.921875 C 72.871094 3.660156 63.65625 4.980469 52.546875 4.980469 L 37.371094 4.980469 L 35.601562 8.042969 L 31.503906 8.042969 L 29.730469 4.980469 L 25.152344 4.980469 L 22.863281 8.949219 L 25.152344 12.914062 L 29.730469 12.914062 Z M 29.730469 12.921875 " fill-opacity="1" fill-rule="nonzero"/></g><g clip-path="url(#124c0aa3d5)"><path fill="#212ea0" d="M 57.117188 17.800781 L 53.015625 17.800781 L 51.246094 14.738281 L 46.667969 14.738281 L 44.375 18.707031 L 46.667969 22.671875 L 51.246094 22.671875 L 53.015625 19.609375 L 57.117188 19.609375 L 58.886719 22.671875 L 86.273438 22.671875 C 85.535156 19.777344 84.25 17.09375 82.542969 14.730469 L 58.886719 14.730469 Z M 57.117188 17.800781 " fill-opacity="1" fill-rule="nonzero"/></g><path fill="#212ea0" d="M 2.289062 24.488281 L 0 28.457031 L 2.289062 32.429688 L 6.878906 32.429688 L 9.167969 28.457031 L 6.878906 24.488281 Z M 2.289062 24.488281 " fill-opacity="1" fill-rule="nonzero"/><path fill="#212ea0" d="M 31.296875 18.707031 L 33.585938 22.671875 L 38.175781 22.671875 L 40.464844 18.707031 L 38.175781 14.738281 L 33.585938 14.738281 Z M 31.296875 18.707031 " fill-opacity="1" fill-rule="nonzero"/><path fill="#212ea0" d="M 17.941406 43.992188 L 15.644531 47.964844 L 17.941406 51.929688 L 22.523438 51.929688 L 24.8125 47.964844 L 22.523438 43.992188 Z M 17.941406 43.992188 " fill-opacity="1" fill-rule="nonzero"/><g clip-path="url(#0b2af6f293)"><path fill="#212ea0" d="M 37.554688 37.300781 L 33.453125 37.300781 L 31.683594 34.242188 L 27.101562 34.242188 L 24.8125 38.207031 L 27.101562 42.171875 L 31.683594 42.171875 L 33.453125 39.113281 L 37.554688 39.113281 L 39.324219 42.171875 L 82.535156 42.171875 C 84.242188 39.8125 85.527344 37.128906 86.265625 34.234375 C 71.917969 34.234375 53.664062 34.234375 39.316406 34.234375 Z M 37.554688 37.300781 " fill-opacity="1" fill-rule="nonzero"/></g><g clip-path="url(#c49fa52b13)"><path fill="#212ea0" d="M 49.296875 47.058594 L 45.195312 47.058594 L 43.425781 44 C 39.292969 44 35.152344 44 31.015625 44 L 28.722656 47.964844 L 31.015625 51.929688 C 35.152344 51.929688 39.285156 51.929688 43.425781 51.929688 L 45.195312 48.871094 L 49.296875 48.871094 L 51.066406 51.929688 C 62.800781 51.929688 72.660156 53.496094 81.085938 43.992188 L 51.066406 43.992188 Z M 49.296875 47.058594 " fill-opacity="1" fill-rule="nonzero"/></g><g fill="#ffffff" fill-opacity="1"><g transform="translate(73.257555, 30.670155)"><g><path d="M 5.1875 0 L -0.28125 0 L 7.140625 -19.609375 L 12.75 -19.609375 L 20.171875 0 L 14.703125 0 L 13.453125 -3.5 L 6.4375 -3.5 Z M 7.703125 -7.140625 L 12.1875 -7.140625 L 9.953125 -13.734375 Z M 7.703125 -7.140625 "/></g></g></g><g fill="#ffffff" fill-opacity="1"><g transform="translate(98.752683, 30.670155)"><g><path d="M 16.8125 -0.28125 C 12.644531 0.09375 9.1875 0.28125 6.4375 0.28125 C 4.613281 0.28125 3.269531 -0.144531 2.40625 -1 C 1.550781 -1.863281 1.125 -3.210938 1.125 -5.046875 L 1.125 -14 C 1.125 -15.96875 1.566406 -17.394531 2.453125 -18.28125 C 3.335938 -19.164062 4.757812 -19.609375 6.71875 -19.609375 L 16.8125 -19.609375 L 16.8125 -15.6875 L 7.84375 -15.6875 C 6.71875 -15.6875 6.15625 -15.125 6.15625 -14 L 6.15625 -5.046875 C 6.15625 -4.617188 6.28125 -4.273438 6.53125 -4.015625 C 6.789062 -3.765625 7.113281 -3.640625 7.5 -3.640625 C 7.894531 -3.640625 8.328125 -3.644531 8.796875 -3.65625 C 9.265625 -3.664062 9.75 -3.675781 10.25 -3.6875 C 10.757812 -3.707031 11.269531 -3.726562 11.78125 -3.75 C 12.289062 -3.769531 12.953125 -3.804688 13.765625 -3.859375 C 14.578125 -3.921875 15.59375 -3.988281 16.8125 -4.0625 Z M 16.8125 -0.28125 "/></g></g></g><g fill="#ffffff" fill-opacity="1"><g transform="translate(121.726384, 30.670155)"><g><path d="M 11.203125 0 L 6.15625 0 L 6.15625 -15.6875 L 0.28125 -15.6875 L 0.28125 -19.609375 L 17.09375 -19.609375 L 17.09375 -15.6875 L 11.203125 -15.6875 Z M 11.203125 0 "/></g></g></g><g fill="#ffffff" fill-opacity="1"><g transform="translate(78.542242, 48.217367)"><g><path d="M 7.625 -0.125 C 5.738281 0.0390625 4.171875 0.125 2.921875 0.125 C 2.085938 0.125 1.476562 -0.0664062 1.09375 -0.453125 C 0.707031 -0.847656 0.515625 -1.457031 0.515625 -2.28125 L 0.515625 -6.359375 C 0.515625 -7.242188 0.710938 -7.882812 1.109375 -8.28125 C 1.515625 -8.6875 2.160156 -8.890625 3.046875 -8.890625 L 7.625 -8.890625 L 7.625 -7.109375 L 3.5625 -7.109375 C 3.050781 -7.109375 2.796875 -6.859375 2.796875 -6.359375 L 2.796875 -2.28125 C 2.796875 -2.09375 2.851562 -1.941406 2.96875 -1.828125 C 3.082031 -1.710938 3.226562 -1.65625 3.40625 -1.65625 C 3.582031 -1.65625 3.773438 -1.65625 3.984375 -1.65625 C 4.203125 -1.664062 4.425781 -1.671875 4.65625 -1.671875 C 4.882812 -1.679688 5.113281 -1.691406 5.34375 -1.703125 C 5.570312 -1.710938 5.867188 -1.726562 6.234375 -1.75 C 6.609375 -1.78125 7.070312 -1.8125 7.625 -1.84375 Z M 7.625 -0.125 "/></g></g></g><g fill="#ffffff" fill-opacity="1"><g transform="translate(93.383274, 48.217367)"><g><path d="M 6.484375 -6.484375 C 6.484375 -6.984375 6.226562 -7.234375 5.71875 -7.234375 L 3.5625 -7.234375 C 3.050781 -7.234375 2.796875 -6.984375 2.796875 -6.484375 L 2.796875 -2.40625 C 2.796875 -1.90625 3.050781 -1.65625 3.5625 -1.65625 L 5.71875 -1.65625 C 6.226562 -1.65625 6.484375 -1.90625 6.484375 -2.40625 Z M 8.765625 -2.40625 C 8.765625 -1.519531 8.5625 -0.875 8.15625 -0.46875 C 7.757812 -0.0703125 7.113281 0.125 6.21875 0.125 L 3.046875 0.125 C 2.160156 0.125 1.515625 -0.0703125 1.109375 -0.46875 C 0.710938 -0.875 0.515625 -1.519531 0.515625 -2.40625 L 0.515625 -6.484375 C 0.515625 -7.367188 0.710938 -8.007812 1.109375 -8.40625 C 1.515625 -8.8125 2.160156 -9.015625 3.046875 -9.015625 L 6.21875 -9.015625 C 7.113281 -9.015625 7.757812 -8.8125 8.15625 -8.40625 C 8.5625 -8.007812 8.765625 -7.367188 8.765625 -6.484375 Z M 8.765625 -2.40625 "/></g></g></g><g fill="#ffffff" fill-opacity="1"><g transform="translate(109.621776, 48.217367)"><g><path d="M 5.71875 -8.890625 C 6.675781 -8.890625 7.398438 -8.640625 7.890625 -8.140625 C 8.390625 -7.648438 8.640625 -6.925781 8.640625 -5.96875 L 8.640625 -2.921875 C 8.640625 -1.960938 8.390625 -1.234375 7.890625 -0.734375 C 7.398438 -0.242188 6.675781 0 5.71875 0 L 0.765625 0 L 0.765625 -8.890625 Z M 6.359375 -5.96875 C 6.359375 -6.726562 5.972656 -7.109375 5.203125 -7.109375 L 3.046875 -7.109375 L 3.046875 -1.78125 L 5.203125 -1.78125 C 5.972656 -1.78125 6.359375 -2.160156 6.359375 -2.921875 Z M 6.359375 -5.96875 "/></g></g></g><g fill="#ffffff" fill-opacity="1"><g transform="translate(125.733242, 48.217367)"><g><path d="M 7.8125 0 L 0.765625 0 L 0.765625 -8.890625 L 7.8125 -8.890625 L 7.8125 -7.109375 L 3.046875 -7.109375 L 3.046875 -5.40625 L 6.796875 -5.40625 L 6.796875 -3.625 L 3.046875 -3.625 L 3.046875 -1.78125 L 7.8125 -1.78125 Z M 7.8125 0 "/></g></g></g><g clip-path="url(#0fa96e11c9)"><path stroke-linecap="round" transform="matrix(0, 0.749085, -0.749085, 0, 65.792414, 0.367309)" fill="none" stroke-linejoin="miter" d="M 1.501669 1.501091 L 73.82946 1.501091 " stroke="#212ea0" stroke-width="3" stroke-opacity="1" stroke-miterlimit="4"/></g></svg>