<svg xmlns="http://www.w3.org/2000/svg" xmlns:xlink="http://www.w3.org/1999/xlink" width="304" zoomAndPan="magnify" viewBox="0 0 228 56.999997" height="76" preserveAspectRatio="xMidYMid meet" version="1.0"><defs><g/><clipPath id="5270062144"><path d="M 13 24 L 64.5 24 L 64.5 33 L 13 33 Z M 13 24 " clip-rule="nonzero"/></clipPath><clipPath id="9b11457dc9"><path d="M 22 4 L 64.5 4 L 64.5 13 L 22 13 Z M 22 4 " clip-rule="nonzero"/></clipPath><clipPath id="797e3b84b5"><path d="M 44 14 L 64.5 14 L 64.5 23 L 44 23 Z M 44 14 " clip-rule="nonzero"/></clipPath><clipPath id="8df9d5e3ec"><path d="M 24 34 L 64.5 34 L 64.5 43 L 24 43 Z M 24 34 " clip-rule="nonzero"/></clipPath><clipPath id="ffb9f720b6"><path d="M 28 44 L 64.5 44 L 64.5 53 L 28 53 Z M 28 44 " clip-rule="nonzero"/></clipPath></defs><g clip-path="url(#5270062144)"><path fill="#212ea0" d="M 86.765625 24.484375 L 45.25 24.484375 L 43.476562 27.550781 L 39.371094 27.550781 L 37.597656 24.484375 C 36.070312 24.484375 16.917969 24.484375 15.386719 24.484375 L 13.09375 28.457031 L 15.386719 32.425781 C 16.917969 32.425781 36.070312 32.425781 37.597656 32.425781 L 39.371094 29.363281 L 43.476562 29.363281 L 45.25 32.425781 L 86.765625 32.425781 C 87.222656 29.804688 87.222656 27.117188 86.765625 24.484375 Z M 86.765625 24.484375 " fill-opacity="1" fill-rule="nonzero"/></g><g clip-path="url(#9b11457dc9)"><path fill="#212ea0" d="M 29.769531 12.902344 L 31.539062 9.839844 L 35.644531 9.839844 L 37.417969 12.902344 L 81.1875 12.902344 C 72.960938 3.628906 63.734375 4.953125 52.609375 4.953125 L 37.417969 4.953125 L 35.644531 8.019531 L 31.539062 8.019531 L 29.769531 4.953125 L 25.183594 4.953125 L 22.890625 8.925781 L 25.183594 12.894531 L 29.769531 12.894531 Z M 29.769531 12.902344 " fill-opacity="1" fill-rule="nonzero"/></g><g clip-path="url(#797e3b84b5)"><path fill="#212ea0" d="M 57.1875 17.789062 L 53.082031 17.789062 L 51.308594 14.722656 L 46.722656 14.722656 L 44.429688 18.695312 L 46.722656 22.664062 L 51.308594 22.664062 L 53.082031 19.601562 L 57.1875 19.601562 L 58.960938 22.664062 L 86.378906 22.664062 C 85.636719 19.765625 84.355469 17.078125 82.644531 14.714844 L 58.960938 14.714844 Z M 57.1875 17.789062 " fill-opacity="1" fill-rule="nonzero"/></g><path fill="#212ea0" d="M 2.292969 24.484375 L 0 28.457031 L 2.292969 32.433594 L 6.886719 32.433594 L 9.179688 28.457031 L 6.886719 24.484375 Z M 2.292969 24.484375 " fill-opacity="1" fill-rule="nonzero"/><path fill="#212ea0" d="M 31.335938 18.695312 L 33.628906 22.664062 L 38.222656 22.664062 L 40.515625 18.695312 L 38.222656 14.722656 L 33.628906 14.722656 Z M 31.335938 18.695312 " fill-opacity="1" fill-rule="nonzero"/><path fill="#212ea0" d="M 17.964844 44.007812 L 15.664062 47.988281 L 17.964844 51.960938 L 22.550781 51.960938 L 24.84375 47.988281 L 22.550781 44.007812 Z M 17.964844 44.007812 " fill-opacity="1" fill-rule="nonzero"/><g clip-path="url(#8df9d5e3ec)"><path fill="#212ea0" d="M 37.597656 37.3125 L 33.496094 37.3125 L 31.722656 34.246094 L 27.136719 34.246094 L 24.84375 38.21875 L 27.136719 42.191406 L 31.722656 42.191406 L 33.496094 39.125 L 37.597656 39.125 L 39.371094 42.191406 L 82.636719 42.191406 C 84.347656 39.824219 85.628906 37.140625 86.371094 34.238281 C 72.007812 34.238281 53.726562 34.238281 39.363281 34.238281 Z M 37.597656 37.3125 " fill-opacity="1" fill-rule="nonzero"/></g><g clip-path="url(#ffb9f720b6)"><path fill="#212ea0" d="M 49.355469 47.082031 L 45.25 47.082031 L 43.476562 44.019531 C 39.339844 44.019531 35.195312 44.019531 31.050781 44.019531 L 28.757812 47.988281 L 31.050781 51.960938 C 35.195312 51.960938 39.332031 51.960938 43.476562 51.960938 L 45.25 48.894531 L 49.355469 48.894531 L 51.128906 51.960938 C 62.875 51.960938 72.75 53.527344 81.1875 44.007812 L 51.128906 44.007812 Z M 49.355469 47.082031 " fill-opacity="1" fill-rule="nonzero"/></g><g fill="#ffffff" fill-opacity="1"><g transform="translate(96.354294, 30.672804)"><g><path d="M 5.1875 0 L -0.28125 0 L 7.15625 -19.625 L 12.765625 -19.625 L 20.1875 0 L 14.71875 0 L 13.46875 -3.5 L 6.453125 -3.5 Z M 7.71875 -7.15625 L 12.203125 -7.15625 L 9.953125 -13.75 Z M 7.71875 -7.15625 "/></g></g></g><g fill="#ffffff" fill-opacity="1"><g transform="translate(121.880551, 30.672804)"><g><path d="M 16.828125 -0.28125 C 12.660156 0.09375 9.203125 0.28125 6.453125 0.28125 C 4.617188 0.28125 3.269531 -0.144531 2.40625 -1 C 1.550781 -1.863281 1.125 -3.210938 1.125 -5.046875 L 1.125 -14.015625 C 1.125 -15.984375 1.566406 -17.410156 2.453125 -18.296875 C 3.335938 -19.179688 4.765625 -19.625 6.734375 -19.625 L 16.828125 -19.625 L 16.828125 -15.703125 L 7.859375 -15.703125 C 6.734375 -15.703125 6.171875 -15.140625 6.171875 -14.015625 L 6.171875 -5.046875 C 6.171875 -4.617188 6.296875 -4.273438 6.546875 -4.015625 C 6.796875 -3.765625 7.117188 -3.640625 7.515625 -3.640625 C 7.910156 -3.640625 8.34375 -3.644531 8.8125 -3.65625 C 9.28125 -3.664062 9.765625 -3.679688 10.265625 -3.703125 C 10.765625 -3.722656 11.269531 -3.738281 11.78125 -3.75 C 12.300781 -3.769531 12.96875 -3.804688 13.78125 -3.859375 C 14.59375 -3.921875 15.609375 -3.988281 16.828125 -4.0625 Z M 16.828125 -0.28125 "/></g></g></g><g fill="#ffffff" fill-opacity="1"><g transform="translate(144.882302, 30.672804)"><g><path d="M 11.21875 0 L 6.171875 0 L 6.171875 -15.703125 L 0.28125 -15.703125 L 0.28125 -19.625 L 17.109375 -19.625 L 17.109375 -15.703125 L 11.21875 -15.703125 Z M 11.21875 0 "/></g></g></g><g fill="#ffffff" fill-opacity="1"><g transform="translate(70.433629, 48.241441)"><g><path d="M 0.5 -1.84375 C 2.820312 -1.71875 4.394531 -1.65625 5.21875 -1.65625 C 5.40625 -1.65625 5.554688 -1.710938 5.671875 -1.828125 C 5.785156 -1.941406 5.84375 -2.097656 5.84375 -2.296875 L 5.84375 -3.4375 L 2.921875 -3.4375 C 2.035156 -3.4375 1.390625 -3.632812 0.984375 -4.03125 C 0.578125 -4.4375 0.375 -5.085938 0.375 -5.984375 L 0.375 -6.359375 C 0.375 -7.242188 0.578125 -7.890625 0.984375 -8.296875 C 1.390625 -8.703125 2.035156 -8.90625 2.921875 -8.90625 L 7.390625 -8.90625 L 7.390625 -7.125 L 3.4375 -7.125 C 2.925781 -7.125 2.671875 -6.867188 2.671875 -6.359375 L 2.671875 -6.109375 C 2.671875 -5.597656 2.925781 -5.34375 3.4375 -5.34375 L 5.71875 -5.34375 C 6.550781 -5.34375 7.160156 -5.144531 7.546875 -4.75 C 7.941406 -4.363281 8.140625 -3.753906 8.140625 -2.921875 L 8.140625 -2.296875 C 8.140625 -1.460938 7.941406 -0.847656 7.546875 -0.453125 C 7.160156 -0.0664062 6.550781 0.125 5.71875 0.125 C 5.289062 0.125 4.832031 0.117188 4.34375 0.109375 L 3.171875 0.046875 C 2.304688 0.00390625 1.414062 -0.0507812 0.5 -0.125 Z M 0.5 -1.84375 "/></g></g></g><g fill="#ffffff" fill-opacity="1"><g transform="translate(85.928769, 48.241441)"><g><path d="M 6.484375 -6.484375 C 6.484375 -6.992188 6.226562 -7.25 5.71875 -7.25 L 3.5625 -7.25 C 3.050781 -7.25 2.796875 -6.992188 2.796875 -6.484375 L 2.796875 -2.421875 C 2.796875 -1.910156 3.050781 -1.65625 3.5625 -1.65625 L 5.71875 -1.65625 C 6.226562 -1.65625 6.484375 -1.910156 6.484375 -2.421875 Z M 8.78125 -2.421875 C 8.78125 -1.523438 8.578125 -0.875 8.171875 -0.46875 C 7.765625 -0.0703125 7.117188 0.125 6.234375 0.125 L 3.046875 0.125 C 2.160156 0.125 1.515625 -0.0703125 1.109375 -0.46875 C 0.710938 -0.875 0.515625 -1.523438 0.515625 -2.421875 L 0.515625 -6.484375 C 0.515625 -7.378906 0.710938 -8.023438 1.109375 -8.421875 C 1.515625 -8.828125 2.160156 -9.03125 3.046875 -9.03125 L 6.234375 -9.03125 C 7.117188 -9.03125 7.765625 -8.828125 8.171875 -8.421875 C 8.578125 -8.023438 8.78125 -7.378906 8.78125 -6.484375 Z M 8.78125 -2.421875 "/></g></g></g><g fill="#ffffff" fill-opacity="1"><g transform="translate(102.187097, 48.241441)"><g><path d="M 3.046875 -1.78125 L 7.6875 -1.78125 L 7.6875 0 L 0.765625 0 L 0.765625 -8.90625 L 3.046875 -8.90625 Z M 3.046875 -1.78125 "/></g></g></g><g fill="#ffffff" fill-opacity="1"><g transform="translate(116.982649, 48.241441)"><g><path d="M 6.484375 -8.90625 L 8.78125 -8.90625 L 8.78125 -2.421875 C 8.78125 -1.523438 8.578125 -0.875 8.171875 -0.46875 C 7.765625 -0.0703125 7.117188 0.125 6.234375 0.125 L 3.3125 0.125 C 2.414062 0.125 1.765625 -0.0703125 1.359375 -0.46875 C 0.960938 -0.875 0.765625 -1.523438 0.765625 -2.421875 L 0.765625 -8.90625 L 3.046875 -8.90625 L 3.046875 -2.421875 C 3.046875 -1.910156 3.300781 -1.65625 3.8125 -1.65625 L 5.71875 -1.65625 C 6.226562 -1.65625 6.484375 -1.910156 6.484375 -2.421875 Z M 6.484375 -8.90625 "/></g></g></g><g fill="#ffffff" fill-opacity="1"><g transform="translate(133.495381, 48.241441)"><g><path d="M 0.515625 0 Z M 7.625 -0.125 C 5.738281 0.0390625 4.171875 0.125 2.921875 0.125 C 2.085938 0.125 1.476562 -0.0664062 1.09375 -0.453125 C 0.707031 -0.847656 0.515625 -1.460938 0.515625 -2.296875 L 0.515625 -6.359375 C 0.515625 -7.242188 0.710938 -7.890625 1.109375 -8.296875 C 1.515625 -8.703125 2.160156 -8.90625 3.046875 -8.90625 L 7.625 -8.90625 L 7.625 -7.125 L 3.5625 -7.125 C 3.050781 -7.125 2.796875 -6.867188 2.796875 -6.359375 L 2.796875 -2.296875 C 2.796875 -2.097656 2.851562 -1.941406 2.96875 -1.828125 C 3.082031 -1.710938 3.226562 -1.65625 3.40625 -1.65625 C 3.582031 -1.65625 3.773438 -1.65625 3.984375 -1.65625 C 4.203125 -1.664062 4.425781 -1.671875 4.65625 -1.671875 C 4.882812 -1.679688 5.113281 -1.691406 5.34375 -1.703125 C 5.582031 -1.710938 5.882812 -1.726562 6.25 -1.75 C 6.613281 -1.78125 7.070312 -1.8125 7.625 -1.84375 Z M 4.578125 -0.25 L 4.578125 0.25 L 4.703125 0.25 C 5.117188 0.25 5.429688 0.347656 5.640625 0.546875 C 5.859375 0.753906 5.96875 1.039062 5.96875 1.40625 C 5.96875 1.757812 5.859375 2.035156 5.640625 2.234375 C 5.429688 2.441406 5.117188 2.546875 4.703125 2.546875 L 3.171875 2.546875 L 3.171875 1.71875 L 4.4375 1.71875 C 4.738281 1.71875 4.890625 1.613281 4.890625 1.40625 C 4.890625 1.1875 4.738281 1.078125 4.4375 1.078125 L 3.484375 1.078125 L 3.484375 -0.25 Z M 4.578125 -0.25 "/></g></g></g><g fill="#ffffff" fill-opacity="1"><g transform="translate(148.354533, 48.241441)"><g><path d="M 0.515625 0 Z M 6.484375 -6.484375 C 6.484375 -6.992188 6.226562 -7.25 5.71875 -7.25 L 3.5625 -7.25 C 3.050781 -7.25 2.796875 -6.992188 2.796875 -6.484375 L 2.796875 -2.421875 C 2.796875 -1.910156 3.050781 -1.65625 3.5625 -1.65625 L 5.71875 -1.65625 C 6.226562 -1.65625 6.484375 -1.910156 6.484375 -2.421875 Z M 8.78125 -2.421875 C 8.78125 -1.523438 8.578125 -0.875 8.171875 -0.46875 C 7.765625 -0.0703125 7.117188 0.125 6.234375 0.125 L 3.046875 0.125 C 2.160156 0.125 1.515625 -0.0703125 1.109375 -0.46875 C 0.710938 -0.875 0.515625 -1.523438 0.515625 -2.421875 L 0.515625 -6.484375 C 0.515625 -7.378906 0.710938 -8.023438 1.109375 -8.421875 C 1.515625 -8.828125 2.160156 -9.03125 3.046875 -9.03125 L 6.234375 -9.03125 C 7.117188 -9.03125 7.765625 -8.828125 8.171875 -8.421875 C 8.578125 -8.023438 8.78125 -7.378906 8.78125 -6.484375 Z M 5.40625 -10.953125 C 5.675781 -10.953125 5.890625 -11.117188 6.046875 -11.453125 L 6.875 -10.953125 C 6.800781 -10.679688 6.695312 -10.441406 6.5625 -10.234375 C 6.269531 -9.734375 5.882812 -9.484375 5.40625 -9.484375 C 5.226562 -9.484375 5.070312 -9.515625 4.9375 -9.578125 C 4.8125 -9.648438 4.691406 -9.722656 4.578125 -9.796875 C 4.460938 -9.878906 4.347656 -9.953125 4.234375 -10.015625 C 4.128906 -10.085938 4.015625 -10.125 3.890625 -10.125 C 3.617188 -10.125 3.40625 -9.953125 3.25 -9.609375 L 2.421875 -10.125 C 2.554688 -10.644531 2.804688 -11.054688 3.171875 -11.359375 C 3.359375 -11.503906 3.566406 -11.578125 3.796875 -11.578125 C 4.035156 -11.578125 4.21875 -11.539062 4.34375 -11.46875 C 4.476562 -11.40625 4.601562 -11.335938 4.71875 -11.265625 C 4.832031 -11.191406 4.941406 -11.117188 5.046875 -11.046875 C 5.160156 -10.984375 5.28125 -10.953125 5.40625 -10.953125 Z M 5.40625 -10.953125 "/></g></g></g><g fill="#ffffff" fill-opacity="1"><g transform="translate(164.612862, 48.241441)"><g><path d="M 7.828125 0 L 0.765625 0 L 0.765625 -8.90625 L 7.828125 -8.90625 L 7.828125 -7.125 L 3.046875 -7.125 L 3.046875 -5.40625 L 6.796875 -5.40625 L 6.796875 -3.625 L 3.046875 -3.625 L 3.046875 -1.78125 L 7.828125 -1.78125 Z M 7.828125 0 "/></g></g></g><g fill="#ffffff" fill-opacity="1"><g transform="translate(179.662806, 48.241441)"><g><path d="M 0.5 -1.84375 C 2.820312 -1.71875 4.394531 -1.65625 5.21875 -1.65625 C 5.40625 -1.65625 5.554688 -1.710938 5.671875 -1.828125 C 5.785156 -1.941406 5.84375 -2.097656 5.84375 -2.296875 L 5.84375 -3.4375 L 2.921875 -3.4375 C 2.035156 -3.4375 1.390625 -3.632812 0.984375 -4.03125 C 0.578125 -4.4375 0.375 -5.085938 0.375 -5.984375 L 0.375 -6.359375 C 0.375 -7.242188 0.578125 -7.890625 0.984375 -8.296875 C 1.390625 -8.703125 2.035156 -8.90625 2.921875 -8.90625 L 7.390625 -8.90625 L 7.390625 -7.125 L 3.4375 -7.125 C 2.925781 -7.125 2.671875 -6.867188 2.671875 -6.359375 L 2.671875 -6.109375 C 2.671875 -5.597656 2.925781 -5.34375 3.4375 -5.34375 L 5.71875 -5.34375 C 6.550781 -5.34375 7.160156 -5.144531 7.546875 -4.75 C 7.941406 -4.363281 8.140625 -3.753906 8.140625 -2.921875 L 8.140625 -2.296875 C 8.140625 -1.460938 7.941406 -0.847656 7.546875 -0.453125 C 7.160156 -0.0664062 6.550781 0.125 5.71875 0.125 C 5.289062 0.125 4.832031 0.117188 4.34375 0.109375 L 3.171875 0.046875 C 2.304688 0.00390625 1.414062 -0.0507812 0.5 -0.125 Z M 0.5 -1.84375 "/></g></g></g><path stroke-linecap="round" transform="matrix(0, 0.75, -0.75, 0, 65.872749, 0.332961)" fill="none" stroke-linejoin="miter" d="M 1.498761 1.502208 L 73.826893 1.502208 " stroke="#212ea0" stroke-width="3" stroke-opacity="1" stroke-miterlimit="4"/></svg>